
<svg width="169px" height="183px" viewBox="-1 -1 169 183" version="1.1" xmlns="http://www.w3.org/2000/svg" xmlns:xlink="http://www.w3.org/1999/xlink">
    <circle id="Oval-2-Copy" stroke="#484D52" stroke-width="1" stroke-linecap="round" stroke-linejoin="round" fill="none" cx="83" cy="83" r="30"></circle>
    <path d="M129.86318,129.86318 C155.468858,104.257503 155.468858,62.7424972 129.86318,37.1368198 C104.257503,11.5311424 62.7424972,11.5311424 37.1368198,37.1368198 C11.5311424,62.7424972 11.5311424,104.257503 37.1368198,129.86318" id="Oval-2-Copy-4" stroke="#24B47E" stroke-width="1" stroke-linecap="round" stroke-linejoin="round" fill="none"></path>
    <path d="M115.93159,115.93159 C133.843063,98.0201175 133.843063,68.9798825 115.93159,51.0684099 C98.0201175,33.1569373 68.9798825,33.1569373 51.0684099,51.0684099 C33.1569373,68.9798825 33.1569373,98.0201175 51.0684099,115.93159" id="Oval-2-Copy-6" stroke="#24B47E" stroke-width="1" stroke-linecap="round" stroke-linejoin="round" fill="none"></path>
    <path d="M142.03886,142.03886 C174.36898,109.708741 174.36898,57.2912595 142.03886,24.9611396 C109.708741,-7.3689803 57.2912595,-7.3689803 24.9611396,24.9611396 C-7.3689803,57.2912595 -7.3689803,109.708741 24.9611396,142.03886" id="Oval-2-Copy-5" stroke="#24B47E" stroke-width="1" stroke-linecap="round" stroke-linejoin="round" fill="none"></path>
    <path d="M49.75,109.75 C49.75,109.75 64.8562914,109.75 83.5,109.75 L83.5,109.75 C102.13961,109.75 117.25,124.858863 117.25,143.501768 L117.25,149.998232 C117.25,168.638819 102.143709,183.75 83.5,183.75 L53.7453251,183.75 C51.538768,183.75 49.75,181.950013 49.75,179.753284 L49.75,169.537784" id="Rectangle-2" stroke="#484D52" stroke-width="1" stroke-linecap="round" stroke-linejoin="round" fill="none" transform="translate(83.500000, 146.750000) scale(-1, 1) rotate(-90.000000) translate(-83.500000, -146.750000) "></path>
</svg>
