<svg width="734px" height="268px" viewBox="-1 0 734 268" version="1.1" xmlns="http://www.w3.org/2000/svg" xmlns:xlink="http://www.w3.org/1999/xlink">
    <g id="everly" stroke="none" stroke-width="1" fill="none" fill-rule="evenodd" transform="translate(0.000000, 0.299000)">
        <path d="M682.8721,166.0313 C693.0471,136.9013 703.2231,107.7713 713.5081,78.3273 L695.8531,78.3273 C695.7721,76.8073 695.7021,75.4823 695.6171,73.8833 L732.8641,73.8833 L732.8641,78.2643 C729.2501,78.2643 725.7991,78.3603 722.3571,78.2263 C720.4791,78.1523 719.5831,78.7563 718.9471,80.5993 C706.7801,115.8753 694.6211,151.1553 682.2781,186.3703 C676.3891,203.1753 670.3931,219.9533 663.9101,236.5343 C660.5801,245.0533 655.5351,252.7253 648.2791,258.6563 C635.3211,269.2473 612.4501,269.7653 599.2661,260.1533 C586.7891,251.0573 588.2711,233.3763 594.6991,225.6443 C597.7681,221.9533 601.7501,219.5023 606.3391,219.1433 C611.1971,218.7643 616.3391,218.8513 621.0211,220.0483 C630.6771,222.5153 634.8011,230.9023 632.6071,241.8783 C631.6961,246.4353 631.6961,246.4353 627.3131,246.4373 C621.7231,246.4393 621.4261,246.6893 621.1141,251.6793 C620.7811,256.9823 622.8701,260.0913 627.2681,260.5213 C635.1531,261.2923 641.7151,258.1173 646.3021,252.1373 C650.9021,246.1413 655.1031,239.6213 658.2291,232.7613 C662.9721,222.3553 666.6351,211.4563 670.9121,200.3653 C663.4871,200.3653 656.7491,200.2563 650.0171,200.4253 C647.7221,200.4833 646.8151,199.6773 646.0391,197.5863 C631.6351,158.7993 617.1171,120.0543 602.7301,81.2613 C601.8461,78.8763 600.7111,78.0013 598.2471,78.2193 C595.9021,78.4263 593.5241,78.2643 590.9511,78.2643 L590.9511,73.8213 L667.4971,73.8213 L667.4971,78.1873 L653.3811,78.1873 C663.0981,107.7933 672.6471,136.8833 682.1951,165.9743 C682.4211,165.9933 682.6471,166.0123 682.8721,166.0313" id="y" fill="#ffffff"></path>
        <polygon id="l" fill="#ffffff" points="513.7704 0.7017 513.7704 5.1387 529.2344 5.1387 529.2344 195.7867 514.8294 195.7867 514.8294 200.1457 593.5404 200.1457 593.5404 195.5577 578.7484 195.5577 578.7484 0.7017"></polygon>
        <path d="M453.7969,195.7145 L472.1629,195.7145 L472.1629,200.2185 L389.6309,200.2185 L389.6309,195.7555 L403.9759,195.7555 L403.9759,78.3065 L389.6229,78.3065 L389.6229,73.7875 L453.5369,73.7875 L453.5369,96.7405 C453.7169,96.7825 453.8969,96.8235 454.0759,96.8645 C454.9769,94.7785 455.7669,92.6355 456.7979,90.6155 C462.7869,78.8895 472.5609,72.7315 485.4849,71.2355 C492.1379,70.4655 498.5449,71.2275 504.5119,74.3995 C511.4269,78.0745 515.6119,83.8015 516.9319,91.5555 C517.9789,97.7105 517.7009,103.8345 515.8199,109.7725 C512.2069,121.1785 503.9819,125.0725 492.0109,124.5095 C488.6529,124.3515 485.1039,123.3875 482.0799,121.9045 C473.4689,117.6805 469.5199,104.0175 474.2129,95.6585 C474.5069,95.1335 475.4339,94.7855 476.1129,94.6945 C477.2819,94.5375 478.4869,94.6475 479.6769,94.6465 C484.4269,94.6465 485.9209,93.0075 486.3829,87.2905 C486.6709,83.7225 484.7139,81.6485 480.3539,81.0705 C474.6439,80.3125 470.0269,82.6255 466.3099,86.6805 C457.9609,95.7925 454.0599,106.9235 453.8499,118.9845 C453.4149,143.9625 453.6539,168.9525 453.6239,193.9375 C453.6229,194.4135 453.7139,194.8885 453.7969,195.7145" id="r" fill="#ffffff"></path>
        <path d="M308.8464,126.1819 L336.2864,126.1819 C336.2864,118.6309 336.5844,111.2949 336.1984,103.9959 C335.8484,97.4019 335.0654,90.7889 333.8714,84.2959 C333.0564,79.8629 330.2464,76.6119 325.3184,76.0129 C320.1304,75.3829 316.1994,77.3929 313.6694,81.9109 C312.6664,83.7039 311.8464,85.6619 311.3134,87.6439 C307.9174,100.2649 309.0524,113.1639 308.8464,126.1819 L308.8464,126.1819 Z M308.4384,131.5889 C308.5114,147.4539 308.0964,162.7639 313.4704,177.3989 C318.1484,190.1389 327.3694,195.5859 340.9434,194.7339 C352.0714,194.0359 361.8814,190.5539 368.7464,181.6319 C372.5434,176.6979 374.9474,170.6869 377.9204,165.1299 C378.4214,164.1949 378.6204,163.0989 379.0174,161.9009 C380.4504,162.1249 381.7804,162.3329 383.4294,162.5909 C382.4944,168.0539 380.2594,172.8519 377.7144,177.4839 C369.9674,191.5829 357.9874,199.5199 342.0924,201.7519 C328.1154,203.7149 314.2324,203.5329 300.5394,199.9049 C277.6604,193.8439 264.2694,178.6259 259.2214,155.9089 C256.1514,142.0899 256.2164,128.1329 259.9584,114.4059 C264.7004,97.0079 275.8964,84.8519 292.1574,77.7319 C312.1034,68.9979 332.7404,68.4609 353.3194,75.3759 C369.6524,80.8639 378.6924,93.1089 381.9744,109.6199 C383.2014,115.7929 383.1874,122.2089 383.8494,128.5029 C384.1164,131.0469 383.0994,131.6449 380.6834,131.6359 C357.9834,131.5549 335.2824,131.5879 312.5814,131.5889 L308.4384,131.5889 Z" id="e" fill="#ffffff"></path>
        <path d="M123.1399,73.8502 L202.5279,73.8502 L202.5279,78.2742 L185.8059,78.2742 C196.5189,107.9132 207.0699,137.1072 217.8719,166.9912 C227.5899,137.1152 237.0739,107.9612 246.6969,78.3762 L229.0919,78.3762 L229.0919,73.8292 L264.4669,73.8292 L264.4669,78.2642 C261.4389,78.2642 258.4849,78.3872 255.5479,78.2202 C253.6229,78.1112 252.7609,78.8092 252.1789,80.6182 C241.6949,113.2202 231.1549,145.8042 220.6259,178.3922 C218.4959,184.9852 216.3089,191.5602 214.2759,198.1822 C213.7939,199.7502 213.1949,200.4252 211.4459,200.4062 C202.7189,200.3152 193.9899,200.2762 185.2659,200.4302 C183.2049,200.4662 182.8339,199.3172 182.2709,197.9222 C167.8929,162.3062 153.5029,126.6962 139.1149,91.0852 C137.7059,87.5962 136.2219,84.1352 134.9269,80.6042 C134.2949,78.8792 133.4209,78.0902 131.4819,78.2202 C128.8279,78.3972 126.1529,78.2642 123.1399,78.2642 L123.1399,73.8502 Z" id="v" fill="#ffffff"></path>
        <path d="M79.687,126.2258 C79.281,115.0308 79.032,104.2428 78.419,93.4758 C78.214,89.8628 77.505,86.1508 76.288,82.7488 C73.577,75.1768 64.076,73.2888 58.689,79.2868 C56.718,81.4808 55.229,84.4268 54.412,87.2848 C50.81,99.8728 51.922,112.8198 52,125.6768 C52,125.8318 52.206,125.9848 52.379,126.2258 L79.687,126.2258 Z M127.042,131.6428 L51.618,131.6428 C51.618,137.7628 51.446,143.5798 51.656,149.3828 C52.005,159.0088 53.023,168.5608 56.491,177.6618 C61.197,190.0108 70.447,195.5788 83.592,194.8438 C104.473,193.6758 115.204,181.6348 120.975,164.8658 C121.292,163.9428 121.581,163.0108 121.942,161.8988 C123.386,162.1188 124.718,162.3208 126.178,162.5418 C126.221,163.0088 126.368,163.4088 126.271,163.7388 C122.612,176.2568 116.369,187.0358 105.301,194.4848 C98.92,198.7798 91.705,200.9128 84.186,201.9138 C70.113,203.7868 56.091,203.5188 42.35,199.6068 C20.728,193.4498 7.72,178.9848 2.536,157.3458 C-0.894,143.0308 -0.922,128.6148 2.924,114.3958 C7.725,96.6408 19.298,84.4578 35.94,77.3448 C54.965,69.2138 74.725,68.6268 94.371,74.6458 C113.389,80.4718 123,94.5838 125.706,113.7418 C126.517,119.4808 126.592,125.3248 127.042,131.6428 L127.042,131.6428 Z" id="e" fill="#ffffff"></path>
    </g>
</svg>
